HIERARCHY
ROOT Hips
{
  OFFSET 49.4961 93.081 8.35351
  CHANNELS 6 Xposition Yposition Zposition Zrotation Xrotation Yrotation
  JOINT spine
  {
    OFFSET 0 7.80059 0.448573
    CHANNELS 3 Zrotation Xrotation Yrotation
    JOINT spine1
    {
      OFFSET 0 10.1364 0
      CHANNELS 3 Zrotation Xrotation Yrotation
      JOINT spine2
      {
        OFFSET 0 9.71251 0
        CHANNELS 3 Zrotation Xrotation Yrotation
        JOINT Neck
        {
          OFFSET 0 24.9361 1.18887
          CHANNELS 3 Zrotation Xrotation Yrotation
          JOINT Head
          {
            OFFSET 0 7.53384 0
            CHANNELS 3 Zrotation Xrotation Yrotation
            End Site
            {
              OFFSET 0 18.2361 -6.01402
            }
          }
        }
        JOINT RightShoulder
        {
          OFFSET -4.08965 10.4888 -0.569457
          CHANNELS 3 Zrotation Xrotation Yrotation
          JOINT RightArm
          {
            OFFSET 0 13.757 0
            CHANNELS 3 Zrotation Xrotation Yrotation
            JOINT RightArmRoll
            {
              OFFSET 0 6.94478 0
              CHANNELS 3 Zrotation Xrotation Yrotation
              JOINT RightForeArm
              {
                OFFSET 0 20.2277 0
                CHANNELS 3 Zrotation Xrotation Yrotation
                JOINT RightForeArmRoll
                {
                  OFFSET 0 7.79312 0
                  CHANNELS 3 Zrotation Xrotation Yrotation
                  JOINT RightHand
                  {
                    OFFSET 0 15.6391 0
                    CHANNELS 3 Zrotation Xrotation Yrotation
                    End Site
                    {
                      OFFSET 0 0 0
                    }
                  }
                }
              }
            }
          }
        }
        JOINT LeftShoulder
        {
          OFFSET 4.08965 10.4888 -0.569457
          CHANNELS 3 Zrotation Xrotation Yrotation
          JOINT LeftArm
          {
            OFFSET 0 13.757 0
            CHANNELS 3 Zrotation Xrotation Yrotation
            JOINT LeftArmRoll
            {
              OFFSET 0 6.94478 0
              CHANNELS 3 Zrotation Xrotation Yrotation
              JOINT LeftForeArm
              {
                OFFSET 0 20.2277 0
                CHANNELS 3 Zrotation Xrotation Yrotation
                JOINT LeftForeArmRoll
                {
                  OFFSET 0 7.79312 0
                  CHANNELS 3 Zrotation Xrotation Yrotation
                  JOINT LeftHand
                  {
                    OFFSET 0 15.6391 0
                    CHANNELS 3 Zrotation Xrotation Yrotation
                    End Site
                    {
                      OFFSET 0 0 0
                    }
                  }
                }
              }
            }
          }
        }
      }
    }
  }
  JOINT RightUpLeg
  {
    OFFSET -6.91416 -1.26788 -1.06358
    CHANNELS 3 Zrotation Xrotation Yrotation
    JOINT RightUpLegRoll
    {
      OFFSET 0 18.3378 0
      CHANNELS 3 Zrotation Xrotation Yrotation
      JOINT RightLeg
      {
        OFFSET 0 -22.7085 0
        CHANNELS 3 Zrotation Xrotation Yrotation
        JOINT RightLegRoll
        {
          OFFSET 0 22.7828 0
          CHANNELS 3 Zrotation Xrotation Yrotation
          JOINT RightFoot
          {
            OFFSET 0 18.9629 0
            CHANNELS 3 Zrotation Xrotation Yrotation
            JOINT RightToeBase
            {
              OFFSET 0 15.852 0
              CHANNELS 3 Zrotation Xrotation Yrotation
              End Site
              {
                OFFSET 0.00671906 7.67701 -0.884893
              }
            }
          }
        }
      }
    }
  }
  JOINT LeftUpLeg
  {
    OFFSET 6.91416 -1.26788 -1.06358
    CHANNELS 3 Zrotation Xrotation Yrotation
    JOINT LeftUpLegRoll
    {
      OFFSET 0 18.3379 0
      CHANNELS 3 Zrotation Xrotation Yrotation
      JOINT LeftLeg
      {
        OFFSET 0 22.7084 0
        CHANNELS 3 Zrotation Xrotation Yrotation
        JOINT LeftLegRoll
        {
          OFFSET 0 22.9934 0
          CHANNELS 3 Zrotation Xrotation Yrotation
          JOINT LeftFoot
          {
            OFFSET 0 18.7522 0
            CHANNELS 3 Zrotation Xrotation Yrotation
            JOINT LeftToeBase
            {
              OFFSET 0 15.852 0
              CHANNELS 3 Zrotation Xrotation Yrotation
              End Site
              {
                OFFSET -0.030112 7.677 -0.884893
              }
            }
          }
        }
      }
    }
  }
}
MOTION
Frames: 6
Frame Time: 0.00208333
51.9284 92.2408 6.77427 -5.56072 -8.02656 -19.481 0.366245 1.80156 -0.222486 0.727268 7.60428 -0.503122 0.735254 9.24926 -0.516402 11.9611 17.036 4.08617 -18.5921 -13.7685 3.52855 74.645 -7.4422 -5.13335 85.9007 -18.2281 -48.9519 -4.35856e-006 7.55519e-008 6.56716e-007 -152.101 57.5884 117.908 -4.44427e-006 -7.93097e-006 -3.00046 8.02894 -4.95153 0.697746 -33.6487 -2.05815 -1.68434 -47.5487 77.3286 -44.4901 -1.91865e-008 6.43887e-007 9.76333e-006 4.47001 29.8412 -1.28646 4.52777e-007 1.01408e-006 3.00367 -8.02962 -4.95146 -0.697668 -176.16 0.13399 -2.56243 180 7.01478e-015 178.657 -179.839 24.7496 178.954 4.13338e-007 -2.09623e-006 0.703827 -32.8153 77.717 34.3377 8.13856 25.2634 -3.49282 -167.768 11.0799 -2.17915 4.54188e-006 -4.6773e-006 -0.948352 -4.01213 -20.9623 -0.093357 -1.60941e-006 -3.52245e-006 -0.0803223 14.235 66.1025 -18.209 -8.13657 25.2338 3.48619 
51.9311 92.2632 6.75603 -5.59925 -7.99683 -19.6198 0.366386 1.80557 -0.225372 0.727052 7.6123 -0.508887 0.735109 9.25727 -0.522174 12.1719 16.9844 4.08653 -18.7332 -13.6739 3.57105 74.7075 -7.44657 -5.13718 85.8215 -18.3234 -48.7104 -4.35856e-006 7.55519e-008 6.56716e-007 -152.141 57.696 118.101 -4.44427e-006 -7.93097e-006 -3.00046 8.02894 -4.95153 0.697746 -33.3634 -2.09276 -1.69241 -46.1356 77.4561 -45.5745 -1.91865e-008 6.43887e-007 9.76333e-006 4.40299 28.6448 -1.15323 4.52777e-007 1.01408e-006 3.00369 -8.02962 -4.95146 -0.697668 -176.139 0.17424 -2.58259 180 7.01478e-015 178.658 -179.834 24.7509 178.953 4.13338e-007 -2.09623e-006 0.702092 -32.7305 77.6913 34.2595 8.13859 25.2638 -3.49266 -167.721 11.0841 -2.21028 4.54188e-006 -4.6773e-006 -0.948099 -4.01021 -21.0027 -0.0923815 -1.60941e-006 -3.52245e-006 -0.0798759 14.2461 66.1166 -18.2179 -8.13657 25.2338 3.48619 
51.9472 92.2396 6.70994 -5.63552 -7.96295 -19.7563 0.36641 1.80882 -0.228012 0.727097 7.61876 -0.514193 0.73522 9.26374 -0.527492 12.3779 16.921 4.08847 -18.8671 -13.5704 3.61565 74.7652 -7.45189 -5.14129 85.7562 -18.4267 -48.4628 -4.35856e-006 7.55519e-008 6.56716e-007 -152.189 57.8009 118.301 -4.44427e-006 -7.93097e-006 -3.00046 8.02894 -4.95153 0.697746 -33.0859 -2.12207 -1.70454 -44.7514 77.5724 -46.647 -1.91865e-008 6.43887e-007 9.76333e-006 4.3363 27.4729 -1.03317 4.52777e-007 1.01408e-006 3.0037 -8.02962 -4.95146 -0.697668 -176.117 0.219349 -2.60364 180 7.01479e-015 178.659 -179.828 24.7531 178.951 4.13338e-007 -2.09623e-006 0.700569 -32.6497 77.6664 34.1845 8.13858 25.2637 -3.49233 -167.674 11.0918 -2.24226 4.54188e-006 -4.6773e-006 -0.94782 -4.00945 -21.0402 -0.0915699 -1.60941e-006 -3.52245e-006 -0.0793756 14.2546 66.1287 -18.2255 -8.13657 25.2338 3.48619 
51.9543 92.2187 6.70012 -5.66924 -7.92532 -19.8892 0.366074 1.81146 -0.230228 0.726827 7.62404 -0.518643 0.735005 9.26902 -0.531946 12.5853 16.8425 4.0901 -18.9973 -13.4533 3.66208 74.8206 -7.45772 -5.14554 85.7023 -18.5324 -48.2067 -4.35856e-006 7.55519e-008 6.56716e-007 -152.248 57.9059 118.513 -4.44427e-006 -7.93097e-006 -3.00046 8.02894 -4.95153 0.697746 -32.8129 -2.14563 -1.72148 -43.3899 77.6731 -47.7043 -1.91865e-008 6.43887e-007 9.76333e-006 4.25716 26.3214 -0.91834 4.52777e-007 1.01408e-006 3.00371 -8.02962 -4.95146 -0.697668 -176.096 0.269757 -2.62492 180 7.01479e-015 178.66 -179.822 24.7578 178.95 4.13338e-007 -2.09623e-006 0.699334 -32.5762 77.6429 34.115 8.13854 25.2631 -3.49184 -167.628 11.1039 -2.27412 4.54188e-006 -4.6773e-006 -0.947524 -4.00927 -21.0759 -0.0908295 -1.60941e-006 -3.52245e-006 -0.0788345 14.2608 66.1393 -18.2322 -8.13657 25.2338 3.48619 
51.974 92.2286 6.71577 -5.7007 -7.88428 -20.0189 0.365461 1.81354 -0.232088 0.726359 7.62818 -0.522378 0.734582 9.27316 -0.53568 12.7932 16.751 4.09164 -19.124 -13.3249 3.71002 74.8739 -7.46401 -5.14992 85.6587 -18.6396 -47.9432 -4.35856e-006 7.55519e-008 6.56716e-007 -152.314 58.0106 118.735 -4.44427e-006 -7.93097e-006 -3.00045 8.02894 -4.95153 0.697746 -32.5445 -2.16412 -1.74253 -42.0578 77.7599 -48.7414 -1.91865e-008 6.43887e-007 9.76333e-006 4.16845 25.1907 -0.808596 4.52777e-007 1.01408e-006 3.00373 -8.02962 -4.95146 -0.697668 -176.076 0.324829 -2.64641 180 7.01479e-015 178.661 -179.817 24.7646 178.949 4.13338e-007 -2.09623e-006 0.698341 -32.5092 77.6208 34.0505 8.13847 25.2621 -3.49121 -167.582 11.1198 -2.30601 4.54188e-006 -4.6773e-006 -0.947202 -4.00967 -21.11 -0.0901615 -1.60941e-006 -3.52245e-006 -0.0782542 14.2647 66.1484 -18.238 -8.13657 25.2338 3.48619 
51.9806 92.2477 6.69015 -5.73019 -7.84016 -20.1458 0.364652 1.81506 -0.233661 0.725808 7.63122 -0.52554 0.734069 9.2762 -0.538839 13.0005 16.649 4.09329 -19.2472 -13.1874 3.75919 74.925 -7.47069 -5.15439 85.6247 -18.7475 -47.6738 -4.35856e-006 7.55519e-008 6.56716e-007 -152.388 58.1148 118.966 -4.44427e-006 -7.93097e-006 -3.00045 8.02894 -4.95153 0.697746 -32.281 -2.17823 -1.76701 -40.7616 77.8344 -49.7537 -1.91865e-008 6.43887e-007 9.76333e-006 4.07305 24.0816 -0.703837 4.52777e-007 1.01408e-006 3.00374 -8.02962 -4.95146 -0.697668 -176.055 0.383929 -2.66812 180 7.0148e-015 178.663 -179.812 24.773 178.948 4.13338e-007 -2.09623e-006 0.697548 -32.4476 77.5997 33.99 8.13838 25.2607 -3.49047 -167.537 11.1392 -2.33803 4.54188e-006 -4.6773e-006 -0.946848 -4.01065 -21.1429 -0.0895676 -1.60941e-006 -3.52245e-006 -0.0776361 14.2668 66.1562 -18.2431 -8.13657 25.2338 3.48619 
